<?xml version="1.0" encoding="UTF-8"?>
<svg width="20px" height="20px" viewBox="0 0 20 20" version="1.1" xmlns="http://www.w3.org/2000/svg" xmlns:xlink="http://www.w3.org/1999/xlink">
    <title>EA551933-574F-4C95-9BF2-3A75CBA45440</title>
    <g id="Page-1" stroke="none" stroke-width="1" fill="none" fill-rule="evenodd">
        <g id="Resized" transform="translate(-43.000000, -35.000000)" fill="#000000" fill-rule="nonzero">
            <g id="Icons/Right-Arrow" transform="translate(43.000000, 35.000000)">
                <g id="Group" transform="translate(10.625000, 10.000000) rotate(-180.000000) translate(-10.625000, -10.000000) translate(5.000000, 5.000000)">
                    <path d="M3.3723608,-1.04870098 C3.95154236,-1.68840611 4.93964525,-1.73747017 5.57935039,-1.15828861 C6.17640852,-0.617719158 6.25895263,0.279066217 5.79640887,0.916339038 L5.68893802,1.04870098 L2.11125,5 L5.68893802,8.95292253 C6.22950748,9.54998066 6.2228052,10.4505319 5.69940506,11.0388479 L5.57935039,11.1599121 C4.98229226,11.7004816 4.08174097,11.6937793 3.493425,11.1703792 L3.3723608,11.0503245 L-1.15531574,6.04951273 C-1.65576794,5.49676406 -1.69151452,4.67534113 -1.2625555,4.08421042 L-1.15531574,3.95211078 L3.3723608,-1.04870098 Z" id="Icon-Path"></path>
                    <path d="M11.0702419,3.43831176 C11.9331868,3.43831176 12.6327419,4.13786683 12.6327419,5.00081176 C12.6327419,5.80982262 12.0178986,6.47522913 11.2299984,6.55524474 L11.0702419,6.56331176 L-5.13589171e-13,6.56331176 C-0.862944922,6.56331176 -1.5625,5.86375668 -1.5625,5.00081176 C-1.5625,4.19180089 -0.947656669,3.52639438 -0.159756548,3.44637877 L-5.04263298e-13,3.43831176 L11.0702419,3.43831176 Z" id="Icon-Path"></path>
                </g>
            </g>
        </g>
    </g>
</svg>